<svg xmlns="http://www.w3.org/2000/svg" width="24" height="24" viewBox="0 0 24 24">
  <g id="Group_3379" data-name="Group 3379" transform="translate(10461.333 3919.164)">
    <rect id="Rectangle_779" data-name="Rectangle 779" width="24" height="24" transform="translate(-10461.333 -3919.164)" fill="none"/>
    <g id="Group_3378" data-name="Group 3378" transform="translate(-61 -30)">
      <path id="Vector" d="M12.791,20H7.209C2.158,20,0,17.842,0,12.791V7.209C0,2.158,2.158,0,7.209,0h5.581C17.842,0,20,2.158,20,7.209v5.581C20,17.842,17.842,20,12.791,20ZM7.209,1.4C2.921,1.4,1.4,2.921,1.4,7.209v5.581c0,4.288,1.526,5.814,5.814,5.814h5.581c4.288,0,5.814-1.526,5.814-5.814V7.209c0-4.288-1.526-5.814-5.814-5.814Z" transform="translate(-10398 -3887)" fill="#aaa"/>
      <path id="Vector-2" data-name="Vector" d="M8.14,1.4H.7A.7.7,0,0,1,0,.7.7.7,0,0,1,.7,0H8.14a.7.7,0,0,1,.7.7A.7.7,0,0,1,8.14,1.4Z" transform="translate(-10392.419 -3877.697)" fill="#aaa"/>
      <path id="Vector-3" data-name="Vector" d="M.7,8.837a.7.7,0,0,1-.7-.7V.7A.7.7,0,0,1,.7,0a.7.7,0,0,1,.7.7V8.14A.7.7,0,0,1,.7,8.837Z" transform="translate(-10388.697 -3881.417)" fill="#aaa"/>
    </g>
  </g>
</svg>
