<svg xmlns="http://www.w3.org/2000/svg" width="24" height="24" viewBox="0 0 24 24">
  <g id="Group_3366" data-name="Group 3366" transform="translate(7361 4161)">
    <path id="Vector" d="M0,0H24V24H0Z" transform="translate(-7361 -4161)" fill="none"/>
    <g id="Group_3365" data-name="Group 3365" transform="translate(22.75 59.75)">
      <path id="Vector-2" data-name="Vector" d="M12.791,20H7.209C2.158,20,0,17.842,0,12.791V7.209C0,2.158,2.158,0,7.209,0h5.581C17.842,0,20,2.158,20,7.209v5.581C20,17.842,17.842,20,12.791,20ZM7.209,1.4C2.921,1.4,1.4,2.921,1.4,7.209v5.581c0,4.288,1.526,5.814,5.814,5.814h5.581c4.288,0,5.814-1.526,5.814-5.814V7.209c0-4.288-1.526-5.814-5.814-5.814Z" transform="translate(-7381.75 -4218.75)" fill="#ff9600"/>
      <path id="Vector-3" data-name="Vector" d="M3.979,7.96a.69.69,0,0,1-.493-.2L.2,4.472a.7.7,0,0,1,0-.986L3.486.2a.7.7,0,0,1,.986.986L1.681,3.979,4.472,6.77a.7.7,0,0,1,0,.986A.66.66,0,0,1,3.979,7.96Z" transform="translate(-7374.557 -4212.729)" fill="#ff9600"/>
    </g>
  </g>
</svg>
