<svg xmlns="http://www.w3.org/2000/svg" width="24" height="24" viewBox="0 0 24 24">
  <g id="Group_3459" data-name="Group 3459" transform="translate(6138 4465)">
    <path id="Vector" d="M0,0H24V24H0Z" transform="translate(-6138 -4465)" fill="none"/>
    <path id="Vector-2" data-name="Vector" d="M.747,17.337a.742.742,0,0,1-.53-.22.754.754,0,0,1,0-1.06l6.52-6.52a1.231,1.231,0,0,0,0-1.74L.218,1.278A.75.75,0,0,1,1.277.218L7.8,6.737a2.724,2.724,0,0,1,.8,1.93,2.683,2.683,0,0,1-.8,1.93l-6.52,6.52A.786.786,0,0,1,.747,17.337Z" transform="translate(-6129.837 -4461.667)" fill="#1c1c1c"/>
  </g>
</svg>
