<svg id="Iconly_Bold_Arrow_-_Left_2" data-name="Iconly/Bold/Arrow - Left 2" xmlns="http://www.w3.org/2000/svg" width="10" height="12" viewBox="0 0 10 12">
  <g id="Arrow_-_Left_2" data-name="Arrow - Left 2">
    <path id="Arrow_-_Left_2-2" data-name="Arrow - Left 2" d="M9.631,4.869c-.057-.058-.27-.306-.469-.51A21.69,21.69,0,0,0,3.367.335,4.617,4.617,0,0,0,2.188,0a1.933,1.933,0,0,0-.9.218,1.874,1.874,0,0,0-.795.9A9.84,9.84,0,0,0,.242,2.186,23.979,23.979,0,0,0,0,5.992,27.724,27.724,0,0,0,.213,9.681a8.495,8.495,0,0,0,.341,1.327A1.785,1.785,0,0,0,2.132,12h.057a4.879,4.879,0,0,0,1.321-.409A21.69,21.69,0,0,0,9.177,7.625a5.66,5.66,0,0,0,.482-.554A1.783,1.783,0,0,0,10,6.007a1.875,1.875,0,0,0-.369-1.138" fill="#009dff"/>
  </g>
</svg>
