<svg xmlns="http://www.w3.org/2000/svg" width="24" height="24" viewBox="0 0 24 24">
  <g id="Group_3383" data-name="Group 3383" transform="translate(-436 87)">
    <rect id="Rectangle_929" data-name="Rectangle 929" width="24" height="24" transform="translate(436 -87)" fill="none"/>
    <g id="Group_1856" data-name="Group 1856" transform="translate(-32.25 35.75)">
      <path id="Vector" d="M.7,6.658a.69.69,0,0,1-.493-.2.7.7,0,0,1,0-.986L5.467.2a.7.7,0,0,1,.986.986L1.188,6.453A.675.675,0,0,1,.7,6.658Z" transform="translate(476.922 -114.078)" fill="#fff"/>
      <path id="Vector-2" data-name="Vector" d="M5.96,6.658a.69.69,0,0,1-.493-.2L.2,1.188A.7.7,0,0,1,1.188.2L6.453,5.467a.7.7,0,0,1,0,.986A.69.69,0,0,1,5.96,6.658Z" transform="translate(476.922 -114.078)" fill="#fff"/>
      <path id="Vector-3" data-name="Vector" d="M12.791,20H7.209C2.158,20,0,17.842,0,12.791V7.209C0,2.158,2.158,0,7.209,0h5.581C17.842,0,20,2.158,20,7.209v5.581C20,17.842,17.842,20,12.791,20ZM7.209,1.4C2.921,1.4,1.4,2.921,1.4,7.209v5.581c0,4.288,1.526,5.814,5.814,5.814h5.581c4.288,0,5.814-1.526,5.814-5.814V7.209c0-4.288-1.526-5.814-5.814-5.814Z" transform="translate(470.25 -120.75)" fill="#fff"/>
    </g>
  </g>
</svg>
