<svg xmlns="http://www.w3.org/2000/svg" width="24" height="24" viewBox="0 0 24 24">
  <g id="Group_3966" data-name="Group 3966" transform="translate(15315 3831)">
    <path id="Vector" d="M0,0H24V24H0Z" transform="translate(-15315 -3831)" fill="none"/>
    <g id="Group_3038" data-name="Group 3038" transform="translate(-1.511 -1.25)">
      <path id="Vector-2" data-name="Vector" d="M12.886,13.421H6.676C2,13.421,0,11.421,0,6.745V6.621C0,2.392,1.667.354,5.4,0A.735.735,0,0,1,6.181.65a.716.716,0,0,1-.648.781c-2.99.276-4.1,1.686-4.1,5.2v.124C1.429,10.631,2.8,12,6.676,12h6.21c3.876,0,5.248-1.371,5.248-5.248V6.631c0-3.533-1.133-4.943-4.181-5.2A.712.712,0,1,1,14.076.011c3.79.324,5.486,2.371,5.486,6.629v.124C19.562,11.421,17.562,13.421,12.886,13.421Z" transform="translate(-15311.27 -3821.171)" fill="#fff"/>
      <path id="Vector-3" data-name="Vector" d="M.714,13.7A.719.719,0,0,1,0,12.981V.714A.719.719,0,0,1,.714,0a.719.719,0,0,1,.714.714V12.981A.713.713,0,0,1,.714,13.7Z" transform="translate(-15302.203 -3827.75)" fill="#fff"/>
      <path id="Vector-4" data-name="Vector" d="M3.9,4.617a.706.706,0,0,1-.5-.21L.207,1.217A.714.714,0,0,1,1.217.207L3.9,2.893,6.588.207A.714.714,0,0,1,7.6,1.217l-3.19,3.19A.706.706,0,0,1,3.9,4.617Z" transform="translate(-15305.392 -3817.605)" fill="#fff"/>
    </g>
  </g>
</svg>
