<svg xmlns="http://www.w3.org/2000/svg" width="24" height="24" viewBox="0 0 24 24">
    <g data-name="Group 3297">
        <path d="M0 0h24v24H0z" style="fill:none"/>
        <g data-name="Group 3295">
            <path data-name="Vector" d="M8.925 17.145a7.332 7.332 0 0 1-.763-.037 10.086 10.086 0 0 1-1.6-.27L5 16.466C.71 15.452-.695 13.182.31 8.9L1.222 5a9.887 9.887 0 0 1 .744-2.2C3.566-.494 6.627-.2 8.8.315l1.554.363c2.177.512 3.554 1.321 4.326 2.558s.884 2.828.372 5.005l-.912 3.889c-.796 3.405-2.461 5.015-5.215 5.015zM6.422 1.394a3.216 3.216 0 0 0-3.2 2.019A9.457 9.457 0 0 0 2.58 5.32l-.912 3.9c-.828 3.517.13 5.052 3.647 5.889l1.563.372a9.587 9.587 0 0 0 1.4.233c2.531.251 3.786-.856 4.494-3.9l.912-3.889c.419-1.8.363-3.052-.2-3.954s-1.656-1.516-3.461-1.935l-1.545-.363a8.919 8.919 0 0 0-2.056-.279z" transform="translate(6.635 2.464)" style="fill:#aaa"/>
            <path data-name="Vector" d="M6.6 16.649c-2.391 0-3.917-1.433-4.894-4.456L.516 8.518C-.805 4.425.377 2.118 4.451.8l1.47-.478A9.7 9.7 0 0 1 7.094.015a.674.674 0 0 1 .688.26.722.722 0 0 1 .074.735 8.671 8.671 0 0 0-.633 1.9l-.912 3.9c-.828 3.517.13 5.052 3.647 5.889l1.563.372a9.587 9.587 0 0 0 1.4.233.716.716 0 0 1 .623.521.7.7 0 0 1-.279.754 9.2 9.2 0 0 1-2.363 1.088l-1.47.484a9.571 9.571 0 0 1-2.832.498zM6.089 1.736l-1.2.391C1.567 3.2.777 4.76 1.846 8.09l1.191 3.675C4.116 15.087 5.679 15.887 9 14.817l1.47-.484c.056-.019.1-.037.158-.056l-.986-.233C5.354 13.03 3.949 10.76 4.954 6.481l.912-3.9c.065-.296.139-.581.223-.845z" transform="translate(2 4.885)" style="fill:#aaa"/>
            <path data-name="Vector" d="M5.212 2.533a1.271 1.271 0 0 1-.177-.019L.523 1.37A.7.7 0 0 1 .868.021L5.38 1.165a.694.694 0 0 1-.167 1.368z" transform="translate(11.91 8.08)" style="fill:#aaa"/>
            <path data-name="Vector" d="M3.408 2.077a1.271 1.271 0 0 1-.177-.019L.523 1.37A.7.7 0 1 1 .868.021L3.575.71a.7.7 0 0 1 .5.847.677.677 0 0 1-.667.52z" transform="translate(10.99 11.68)" style="fill:#aaa"/>
        </g>
    </g>
</svg>
