<svg xmlns="http://www.w3.org/2000/svg" width="24" height="24" viewBox="0 0 24 24">
    <g data-name="Group 3421">
        <path d="M0 0h24v24H0z" transform="rotate(180 12 12)" style="fill:none"/>
        <g data-name="Group 3420">
            <path data-name="Vector" d="M11.572 14.75c-.26.11-.54.21-.841.31l-1.581.52c-3.973 1.281-6.064.21-7.355-3.762L.514 7.865C-.766 3.893.294 1.791 4.267.51L5.808 0a12.548 12.548 0 0 0-.5 1.651l-.981 4.193c-1.1 4.713.51 7.315 5.223 8.436z" transform="translate(2 5.414)" style="fill:#ff9600"/>
            <path data-name="Vector" d="M10.208.709 8.537.319C5.195-.472 3.2.179 2.033 2.6a10.481 10.481 0 0 0-.74 2.2L.312 8.994c-.981 4.183.31 6.244 4.483 7.235l1.681.4A10.521 10.521 0 0 0 8.1 16.9c3.122.3 4.783-1.161 5.624-4.773l.976-4.183c.982-4.183-.3-6.254-4.492-7.235zM8.327 10.836a.748.748 0 0 1-.73.56 1.367 1.367 0 0 1-.19-.02l-2.912-.74a.749.749 0 1 1 .37-1.451l2.912.74a.748.748 0 0 1 .55.911zm2.932-3.382a.748.748 0 0 1-.73.56 1.367 1.367 0 0 1-.19-.02L5.485 6.763a.749.749 0 0 1 .37-1.451l4.853 1.231a.739.739 0 0 1 .551.91z" transform="translate(6.986 2.493)" style="fill:#ff9600"/>
        </g>
    </g>
</svg>
