<svg xmlns="http://www.w3.org/2000/svg" width="24" height="24" viewBox="0 0 24 24">
    <g data-name="Group 3366">
        <path d="M0 0h24v24H0z" style="fill:none"/>
        <g data-name="Group 3365">
            <path data-name="Vector" d="M12.791 20H7.209C2.158 20 0 17.842 0 12.791V7.209C0 2.158 2.158 0 7.209 0h5.581C17.842 0 20 2.158 20 7.209v5.581c0 5.052-2.158 7.21-7.209 7.21zM7.209 1.4C2.921 1.4 1.4 2.921 1.4 7.209v5.581c0 4.288 1.526 5.814 5.814 5.814h5.581c4.288 0 5.814-1.526 5.814-5.814V7.209c0-4.288-1.526-5.814-5.814-5.814z" transform="translate(2 2)" style="fill:#ff9600"/>
            <path data-name="Vector" d="M3.979 7.96a.69.69 0 0 1-.493-.2L.2 4.472a.7.7 0 0 1 0-.986L3.486.2a.7.7 0 0 1 .986.986L1.681 3.979 4.472 6.77a.7.7 0 0 1 0 .986.66.66 0 0 1-.493.204z" transform="translate(9.193 8.021)" style="fill:#ff9600"/>
        </g>
    </g>
</svg>
