<svg xmlns="http://www.w3.org/2000/svg" width="24" height="24" viewBox="0 0 24 24">
    <g data-name="Group 3299">
        <path d="M0 0h24v24H0z" transform="rotate(180 12 12)" style="fill:none"/>
        <path data-name="Vector" d="M18.86 6.185 11.931.646a3.225 3.225 0 0 0-3.859-.01L1.143 6.185a3.373 3.373 0 0 0-1.11 2.91l1.33 7.959a3.189 3.189 0 0 0 3.04 2.57H15.6a3.208 3.208 0 0 0 3.04-2.57l1.33-7.959a3.429 3.429 0 0 0-1.11-2.91zM10 13.314a2.5 2.5 0 1 1 2.5-2.5 2.5 2.5 0 0 1-2.5 2.5z" transform="translate(2 2.188)" style="fill:#ff9600"/>
    </g>
</svg>
