<svg xmlns="http://www.w3.org/2000/svg" width="24" height="24" viewBox="0 0 24 24">
    <g data-name="Group 3389">
        <path d="M0 0h24v24H0z" transform="rotate(180 12 12)" style="fill:none"/>
        <g data-name="Group 3388">
            <path data-name="Vector" d="M15.211 19.66H4.792a3.639 3.639 0 0 1-3.516-2.977L.039 9.279a3.855 3.855 0 0 1 1.284-3.367L7.769.749a3.684 3.684 0 0 1 4.465.009l6.447 5.154a3.905 3.905 0 0 1 1.284 3.367l-1.237 7.4a3.691 3.691 0 0 1-3.517 2.981zM9.992 1.409a2.189 2.189 0 0 0-1.349.437L2.2 7.009a2.461 2.461 0 0 0-.781 2.046l1.237 7.4a2.28 2.28 0 0 0 2.14 1.8h10.415a2.278 2.278 0 0 0 2.14-1.814l1.237-7.4A2.478 2.478 0 0 0 17.806 7L11.36 1.847a2.244 2.244 0 0 0-1.368-.438z" transform="translate(2 2.17)" style="fill:#aaa"/>
            <path data-name="Vector" d="M3.023 6.047a3.023 3.023 0 1 1 3.024-3.024 3.029 3.029 0 0 1-3.024 3.024zm0-4.651a1.628 1.628 0 1 0 1.628 1.627A1.636 1.636 0 0 0 3.023 1.4z" transform="translate(8.979 9.914)" style="fill:#aaa"/>
        </g>
    </g>
</svg>
