<svg xmlns="http://www.w3.org/2000/svg" width="40" height="40" viewBox="0 0 40 40">
  <g id="Group_3938" data-name="Group 3938" transform="translate(151.75 -278.25)" opacity="0.2">
    <path id="Vector" d="M25.57,40H14.412C4.314,40,0,35.684,0,25.581V14.419C0,4.316,4.314,0,14.412,0H25.57c10.1,0,14.412,4.316,14.412,14.419V25.581C39.982,35.684,35.668,40,25.57,40ZM14.412,2.791c-8.573,0-11.623,3.051-11.623,11.628V25.581c0,8.577,3.05,11.628,11.623,11.628H25.57c8.573,0,11.623-3.051,11.623-11.628V14.419c0-8.577-3.05-11.628-11.623-11.628Z" transform="translate(-151.75 278.25)" fill="#fff"/>
    <path id="Vector-2" data-name="Vector" d="M4.976,9.953A4.976,4.976,0,1,1,9.953,4.976,4.974,4.974,0,0,1,4.976,9.953Zm0-7.238A2.262,2.262,0,1,0,7.238,4.976,2.263,2.263,0,0,0,4.976,2.714Z" transform="translate(-142.366 285.762)" fill="#fff"/>
    <path id="Vector-3" data-name="Vector" d="M1.39,15.3a1.41,1.41,0,0,1-1.154-.6,1.328,1.328,0,0,1,.391-1.882L9.8,6.827a5.689,5.689,0,0,1,6.607.344l.614.525a2.8,2.8,0,0,0,3.425,0l7.743-6.46a5.68,5.68,0,0,1,7.073,0L38.3,3.768a1.342,1.342,0,0,1,.149,1.918,1.436,1.436,0,0,1-1.973.145L33.441,3.3A2.831,2.831,0,0,0,30,3.3l-7.743,6.46a5.68,5.68,0,0,1-7.073,0l-.614-.525a2.832,2.832,0,0,0-3.22-.145l-9.176,5.99A1.545,1.545,0,0,1,1.39,15.3Z" transform="translate(-150.532 297.435)" fill="#fff"/>
  </g>
</svg>
