<svg xmlns="http://www.w3.org/2000/svg" width="17.442" height="20" viewBox="0 0 17.442 20">
  <g id="Group_1616" data-name="Group 1616" transform="translate(-3333.623 -1829.25)">
    <path id="Vector" d="M3.6,7.187A3.594,3.594,0,1,1,7.2,3.6,3.6,3.6,0,0,1,3.6,7.187Zm0-5.793A2.2,2.2,0,1,0,5.8,3.6,2.208,2.208,0,0,0,3.6,1.395Z" transform="translate(3338.743 1834.076)" fill="#009dff"/>
    <path id="Vector-2" data-name="Vector" d="M8.718,20a5.551,5.551,0,0,1-3.84-1.553C2.135,15.807-.9,11.595.248,6.583A8.476,8.476,0,0,1,8.718,0h.009A8.475,8.475,0,0,1,17.2,6.592c1.134,5.012-1.9,9.214-4.64,11.855A5.551,5.551,0,0,1,8.718,20Zm0-18.605a7.022,7.022,0,0,0-7.1,5.5c-1,4.379,1.748,8.154,4.24,10.544a4.115,4.115,0,0,0,5.737,0c2.483-2.39,5.235-6.165,4.249-10.544A7.048,7.048,0,0,0,8.718,1.395Z" transform="translate(3333.623 1829.25)" fill="#009dff"/>
  </g>
</svg>
