<svg xmlns="http://www.w3.org/2000/svg" width="20" height="20" viewBox="0 0 20 20">
  <g id="Group_2980" data-name="Group 2980" transform="translate(151.75 -278.25)">
    <path id="Vector" d="M12.785,20H7.206C2.157,20,0,17.842,0,12.791V7.209C0,2.158,2.157,0,7.206,0h5.579c5.049,0,7.206,2.158,7.206,7.209v5.581C19.991,17.842,17.834,20,12.785,20ZM7.206,1.4C2.92,1.4,1.395,2.921,1.395,7.209v5.581c0,4.288,1.525,5.814,5.811,5.814h5.579c4.286,0,5.811-1.526,5.811-5.814V7.209c0-4.288-1.525-5.814-5.811-5.814Z" transform="translate(-151.75 278.25)" fill="#e2e2e2"/>
    <path id="Vector-2" data-name="Vector" d="M2.626,5.252A2.626,2.626,0,1,1,5.252,2.626,2.624,2.624,0,0,1,2.626,5.252Zm0-3.819A1.194,1.194,0,1,0,3.819,2.626,1.194,1.194,0,0,0,2.626,1.432Z" transform="translate(-147.144 281.937)" fill="#e2e2e2"/>
    <path id="Vector-3" data-name="Vector" d="M.694,8.071a.693.693,0,0,1-.576-.315.725.725,0,0,1,.2-.993L4.893,3.6a2.716,2.716,0,0,1,3.3.181l.307.277a1.34,1.34,0,0,0,1.709,0L14.071.652a2.716,2.716,0,0,1,3.53,0l1.514,1.337A.736.736,0,0,1,19.19,3a.689.689,0,0,1-.985.076L16.691,1.74a1.353,1.353,0,0,0-1.719,0L11.108,5.149a2.716,2.716,0,0,1-3.53,0l-.307-.277A1.352,1.352,0,0,0,5.664,4.8L1.084,7.956A.74.74,0,0,1,.694,8.071Z" transform="translate(-151.107 287.267)" fill="#e2e2e2"/>
  </g>
</svg>
