<svg xmlns="http://www.w3.org/2000/svg" width="24" height="24" viewBox="0 0 24 24">
  <g id="Group_3434" data-name="Group 3434" transform="translate(6834 4237)">
    <path id="Vector" d="M0,0H24V24H0Z" transform="translate(-6834 -4237)" fill="none"/>
    <path id="Vector-2" data-name="Vector" d="M15,0H5A4.992,4.992,0,0,0,0,4.982v6.983a4.992,4.992,0,0,0,5,4.982H6.5a1.149,1.149,0,0,1,.8.4L8.8,19.34a1.421,1.421,0,0,0,2.4,0l1.5-1.991a1.014,1.014,0,0,1,.8-.4H15a4.992,4.992,0,0,0,5-4.982V4.982A4.992,4.992,0,0,0,15,0ZM11,11.756H5a.75.75,0,0,1,0-1.5h6a.75.75,0,0,1,0,1.5Zm4-5H5a.75.75,0,0,1,0-1.5H15a.75.75,0,0,1,0,1.5Z" transform="translate(-6832 -4235)" fill="#e2e2e2"/>
  </g>
</svg>
