<svg xmlns="http://www.w3.org/2000/svg" width="24" height="24" viewBox="0 0 24 24">
  <g id="Group_3015" data-name="Group 3015" transform="translate(5843 3865)">
    <path id="Vector" d="M0,0H24V24H0Z" transform="translate(-5843 -3865)" fill="none"/>
    <g id="Group_2994" data-name="Group 2994" transform="translate(28.68 45.75)">
      <path id="Vector-2" data-name="Vector" d="M6.279,17.209A6.289,6.289,0,0,1,0,10.93V6.279a6.279,6.279,0,0,1,12.558,0V10.93A6.289,6.289,0,0,1,6.279,17.209Zm0-15.814A4.889,4.889,0,0,0,1.4,6.279V10.93a4.884,4.884,0,1,0,9.767,0V6.279A4.889,4.889,0,0,0,6.279,1.4Z" transform="translate(-5865.959 -3908.75)" fill="#717171"/>
      <path id="Vector-3" data-name="Vector" d="M9.07,11.628A9.075,9.075,0,0,1,0,2.558V.7A.7.7,0,0,1,.7,0a.7.7,0,0,1,.7.7v1.86a7.674,7.674,0,0,0,15.349,0V.7a.7.7,0,0,1,1.4,0v1.86A9.075,9.075,0,0,1,9.07,11.628Z" transform="translate(-5868.75 -3900.378)" fill="#717171"/>
      <path id="Vector-4" data-name="Vector" d="M5.809,1.837A.766.766,0,0,1,5.567,1.8a6.858,6.858,0,0,0-4.642,0A.7.7,0,0,1,.46.488a8.244,8.244,0,0,1,5.591,0,.7.7,0,0,1,.419.893A.69.69,0,0,1,5.809,1.837Z" transform="translate(-5863.062 -3904.094)" fill="#717171"/>
      <path id="Vector-5" data-name="Vector" d="M4.109,1.628A.7.7,0,0,1,3.923,1.6a5.818,5.818,0,0,0-3.042,0A.7.7,0,0,1,.518.251a7.224,7.224,0,0,1,3.777,0,.7.7,0,0,1-.186,1.377Z" transform="translate(-5862.208 -3901.094)" fill="#717171"/>
    </g>
  </g>
</svg>
