<svg xmlns="http://www.w3.org/2000/svg" width="32" height="32" viewBox="0 0 32 32">
  <g id="Group_3442" data-name="Group 3442" transform="translate(-296 -565)">
    <circle id="Ellipse_23" data-name="Ellipse 23" cx="16" cy="16" r="16" transform="translate(296 565)" fill="#009dff"/>
    <g id="Group_3441" data-name="Group 3441" transform="translate(9744.813 4412)">
      <path id="Vector" d="M7.346,9.417A7.354,7.354,0,0,1,0,2.071V.562A.564.564,0,0,1,.562,0a.569.569,0,0,1,.562.562V2.071a6.214,6.214,0,1,0,12.428,0V.562a.562.562,0,1,1,1.124,0V2.071A7.33,7.33,0,0,1,7.346,9.417Z" transform="translate(-9440.15 -3832.417)" fill="#fff"/>
      <path id="Vector-2" data-name="Vector" d="M4.9,0A4.906,4.906,0,0,0,0,4.9V8.662a4.9,4.9,0,0,0,9.794,0V4.9A4.906,4.906,0,0,0,4.9,0Zm1.75,6.9a.489.489,0,0,1-.474.361.7.7,0,0,1-.128-.016,4.736,4.736,0,0,0-2.5,0,.491.491,0,0,1-.257-.947,5.666,5.666,0,0,1,3.019,0A.486.486,0,0,1,6.647,6.9ZM7.33,4.672a.482.482,0,0,1-.458.321A.419.419,0,0,1,6.7,4.961a5.537,5.537,0,0,0-3.805,0,.49.49,0,0,1-.634-.289.5.5,0,0,1,.3-.626,6.582,6.582,0,0,1,4.472,0A.5.5,0,0,1,7.33,4.672Z" transform="translate(-9437.701 -3839)" fill="#fff"/>
    </g>
  </g>
</svg>
