<svg xmlns="http://www.w3.org/2000/svg" width="24" height="24" viewBox="0 0 24 24">
  <g id="Group_3026" data-name="Group 3026" transform="translate(6614 3834)">
    <path id="Vector" d="M0,0H24V24H0Z" transform="translate(-6614 -3834)" fill="none"/>
    <g id="Group_3001" data-name="Group 3001">
      <path id="Vector-2" data-name="Vector" d="M10,0A10,10,0,1,0,20,10,10,10,0,0,0,10,0ZM8.75,13.03c0,.48-.2.67-.71.67H6.74c-.51,0-.71-.19-.71-.67V6.97c0-.48.2-.67.71-.67H8.03c.51,0,.71.19.71.67v6.06Zm5.28,0c0,.48-.2.67-.71.67H12.03c-.51,0-.71-.19-.71-.67V6.97c0-.48.2-.67.71-.67h1.29c.51,0,.71.19.71.67Z" transform="translate(-6612.03 -3832)" fill="#009dff"/>
    </g>
  </g>
</svg>
