<svg xmlns="http://www.w3.org/2000/svg" width="40" height="40" viewBox="0 0 40 40">
  <g id="Group_3939" data-name="Group 3939" transform="translate(17541.75 3965.75)" opacity="0.2">
    <path id="Vector" d="M25.581,40H14.419C4.316,40,0,35.684,0,25.581V14.419C0,4.316,4.316,0,14.419,0h9.3a1.406,1.406,0,0,1,1.4,1.4,1.406,1.406,0,0,1-1.4,1.4h-9.3c-8.577,0-11.628,3.051-11.628,11.628V25.581c0,8.577,3.051,11.628,11.628,11.628H25.581c8.577,0,11.628-3.051,11.628-11.628v-9.3a1.4,1.4,0,1,1,2.791,0v9.3C40,35.684,35.684,40,25.581,40Z" transform="translate(-17541.75 -3965.75)" fill="#fff"/>
    <path id="Vector-2" data-name="Vector" d="M16.279,17.672H8.837C2.474,17.672,0,15.2,0,8.834V1.393A1.378,1.378,0,0,1,.856.109a1.408,1.408,0,0,1,1.526.3L17.265,15.29a1.4,1.4,0,0,1-.986,2.381ZM2.791,4.76V8.834c0,4.8,1.247,6.047,6.047,6.047h4.074Z" transform="translate(-17519.424 -3965.747)" fill="#fff"/>
    <path id="Vector-3" data-name="Vector" d="M12.558,2.791H1.4A1.406,1.406,0,0,1,0,1.4,1.406,1.406,0,0,1,1.4,0H12.558a1.406,1.406,0,0,1,1.4,1.4A1.406,1.406,0,0,1,12.558,2.791Z" transform="translate(-17532.447 -3945.285)" fill="#fff"/>
    <path id="Vector-4" data-name="Vector" d="M8.837,2.791H1.4A1.406,1.406,0,0,1,0,1.4,1.406,1.406,0,0,1,1.4,0H8.837a1.406,1.406,0,0,1,1.4,1.4A1.406,1.406,0,0,1,8.837,2.791Z" transform="translate(-17532.447 -3937.843)" fill="#fff"/>
  </g>
</svg>
