<svg xmlns="http://www.w3.org/2000/svg" width="24" height="24" viewBox="0 0 24 24">
  <g id="Group_3023" data-name="Group 3023" transform="translate(6624 3794)">
    <path id="Vector" d="M0,0H24V24H0Z" transform="translate(-6624 -3794)" fill="none"/>
    <g id="Group_3002" data-name="Group 3002">
      <path id="Vector-2" data-name="Vector" d="M10,0A10,10,0,1,0,20,10,10,10,0,0,0,10,0Zm3,12.23L10.1,13.9a2.285,2.285,0,0,1-1.15.31A2.258,2.258,0,0,1,7.8,13.9a2.285,2.285,0,0,1-1.15-2V8.55a2.305,2.305,0,0,1,3.46-2l2.9,1.67A2.318,2.318,0,0,1,13,12.23Z" transform="translate(-6622.03 -3792)" fill="#009dff"/>
    </g>
  </g>
</svg>
