<svg xmlns="http://www.w3.org/2000/svg" width="24" height="24" viewBox="0 0 24 24">
    <g data-name="Group 3331">
        <path d="M0 0h24v24H0z" style="fill:none"/>
        <g data-name="Group 3330">
            <path data-name="Vector" d="M.7 7.907a.7.7 0 0 1-.7-.7V4.884A4.889 4.889 0 0 1 4.884 0h2.325a.7.7 0 0 1 .7.7.7.7 0 0 1-.7.7H4.884A3.49 3.49 0 0 0 1.4 4.884v2.325a.7.7 0 0 1-.7.698z" transform="translate(2 2)" style="fill:#fff"/>
            <path data-name="Vector" d="M7.209 7.907a.7.7 0 0 1-.7-.7V4.884A3.49 3.49 0 0 0 3.023 1.4H.7A.7.7 0 0 1 0 .7.7.7 0 0 1 .7 0h2.323a4.889 4.889 0 0 1 4.884 4.884v2.325a.7.7 0 0 1-.698.698z" transform="translate(14.093 2)" style="fill:#fff"/>
            <path data-name="Vector" d="M2.093 6.977H.7a.7.7 0 1 1 0-1.4h1.4a3.49 3.49 0 0 0 3.481-3.484V.7a.7.7 0 1 1 1.4 0v1.4a4.889 4.889 0 0 1-4.888 4.877z" transform="translate(15.023 15.023)" style="fill:#fff"/>
            <path data-name="Vector" d="M7.209 7.907H4.884A4.889 4.889 0 0 1 0 3.023V.7A.7.7 0 0 1 .7 0a.7.7 0 0 1 .7.7v2.323a3.49 3.49 0 0 0 3.484 3.489h2.325a.7.7 0 1 1 0 1.4z" transform="translate(2 14.093)" style="fill:#fff"/>
            <path data-name="Vector" d="M3.953 6.047h-1.86A1.922 1.922 0 0 1 0 3.953v-1.86A1.922 1.922 0 0 1 2.093 0h1.86a1.922 1.922 0 0 1 2.094 2.093v1.86a1.922 1.922 0 0 1-2.094 2.094zM2.093 1.4c-.549 0-.7.149-.7.7v1.86c0 .549.149.7.7.7h1.86c.549 0 .7-.149.7-.7V2.093c0-.549-.149-.7-.7-.7z" transform="translate(5.256 5.256)" style="fill:#fff"/>
            <path data-name="Vector" d="M3.953 6.047h-1.86A1.922 1.922 0 0 1 0 3.953v-1.86A1.922 1.922 0 0 1 2.093 0h1.86a1.922 1.922 0 0 1 2.094 2.093v1.86a1.922 1.922 0 0 1-2.094 2.094zM2.093 1.4c-.549 0-.7.149-.7.7v1.86c0 .549.149.7.7.7h1.86c.549 0 .7-.149.7-.7V2.093c0-.549-.149-.7-.7-.7z" transform="translate(12.698 5.256)" style="fill:#fff"/>
            <path data-name="Vector" d="M3.953 6.047h-1.86A1.922 1.922 0 0 1 0 3.953v-1.86A1.922 1.922 0 0 1 2.093 0h1.86a1.922 1.922 0 0 1 2.094 2.093v1.86a1.922 1.922 0 0 1-2.094 2.094zM2.093 1.4c-.549 0-.7.149-.7.7v1.86c0 .549.149.7.7.7h1.86c.549 0 .7-.149.7-.7V2.093c0-.549-.149-.7-.7-.7z" transform="translate(5.256 12.698)" style="fill:#fff"/>
            <path data-name="Vector" d="M3.953 6.047h-1.86A1.922 1.922 0 0 1 0 3.953v-1.86A1.922 1.922 0 0 1 2.093 0h1.86a1.922 1.922 0 0 1 2.094 2.093v1.86a1.922 1.922 0 0 1-2.094 2.094zM2.093 1.4c-.549 0-.7.149-.7.7v1.86c0 .549.149.7.7.7h1.86c.549 0 .7-.149.7-.7V2.093c0-.549-.149-.7-.7-.7z" transform="translate(12.698 12.698)" style="fill:#fff"/>
        </g>
    </g>
</svg>
