<svg xmlns="http://www.w3.org/2000/svg" width="24" height="24" viewBox="0 0 24 24">
  <g id="Group_3447" data-name="Group 3447" transform="translate(6357 4213)">
    <path id="Vector" d="M0,0H24V24H0Z" transform="translate(-6357 -4213)" fill="none"/>
    <path id="Vector-2" data-name="Vector" d="M14.2,0H5.813C2.171,0,0,2.17,0,5.81v8.37C0,17.83,2.171,20,5.813,20h8.374C17.829,20,20,17.83,20,14.19V5.81C20.01,2.17,17.839,0,14.2,0ZM3.252,9.89A6.75,6.75,0,0,1,14.777,5.23a1.063,1.063,0,0,1,.09.11V4.48a.75.75,0,0,1,1.5,0V7.13a.756.756,0,0,1-.75.75H12.966a.75.75,0,1,1,0-1.5h.83c-.03-.03-.05-.06-.08-.09A5.243,5.243,0,0,0,4.762,9.92a.761.761,0,0,1-.76.73h-.01A.756.756,0,0,1,3.252,9.89Zm11.526,4.88a6.741,6.741,0,0,1-9.545,0,1.063,1.063,0,0,1-.09-.11v.85a.75.75,0,0,1-1.5,0V12.86a.756.756,0,0,1,.75-.75H7.044a.75.75,0,1,1,0,1.5h-.83c.03.03.05.06.08.09a5.243,5.243,0,0,0,8.954-3.69.75.75,0,0,1,1.5,0A6.65,6.65,0,0,1,14.777,14.77Z" transform="translate(-6355 -4211)" fill="#009dff"/>
  </g>
</svg>
