<svg xmlns="http://www.w3.org/2000/svg" width="24" height="24" viewBox="0 0 24 24">
    <g data-name="Group 3319">
        <path data-name="Rectangle 872" style="fill:none" d="M0 0h24v24H0z"/>
        <g data-name="Group 1756">
            <path d="M9.535 19.07a9.535 9.535 0 1 1 9.535-9.535 9.548 9.548 0 0 1-9.535 9.535zm0-17.674a8.14 8.14 0 1 0 8.14 8.14A8.148 8.148 0 0 0 9.535 1.4z" transform="translate(2.001 2)" style="fill:#717171"/>
            <path data-name="Vector" d="M2.556 3.253a.69.69 0 0 1-.493-.2L.2 1.188A.7.7 0 0 1 1.188.2l1.86 1.86a.7.7 0 0 1 0 .986.69.69 0 0 1-.492.207z" transform="translate(18.748 18.747)" style="fill:#717171"/>
        </g>
    </g>
</svg>
