<svg xmlns="http://www.w3.org/2000/svg" width="24" height="24" viewBox="0 0 24 24">
  <g id="Group_2979" data-name="Group 2979" transform="translate(10144 3701)">
    <path id="Vector" d="M0,0H24V24H0Z" transform="translate(-10144 -3701)" fill="none"/>
    <g id="Group_2966" data-name="Group 2966" transform="translate(0.748 0.748)">
      <path id="Vector-2" data-name="Vector" d="M1.675,7.08a.69.69,0,0,1-.493-.2A4.026,4.026,0,1,1,6.875,1.182a.7.7,0,0,1,0,.986L2.168,6.875A.69.69,0,0,1,1.675,7.08ZM4.028,1.4A2.634,2.634,0,0,0,1.74,5.331L5.331,1.74A2.619,2.619,0,0,0,4.028,1.4Z" transform="translate(-10136.777 -3693.777)" fill="#717171"/>
      <path id="Vector-3" data-name="Vector" d="M3.847,14.448a.708.708,0,0,1-.456-.167,13.5,13.5,0,0,1-2.651-3.1A5.636,5.636,0,0,1,.74,5.6C3.01,2.047,6.312,0,9.8,0a9.689,9.689,0,0,1,5.833,2.037A.7.7,0,0,1,14.8,3.154,8.278,8.278,0,0,0,9.8,1.4c-3,0-5.88,1.8-7.889,4.959a4.228,4.228,0,0,0,0,4.075A12.773,12.773,0,0,0,4.294,13.22a.7.7,0,0,1,.074.986A.676.676,0,0,1,3.847,14.448Z" transform="translate(-10142.55 -3698.14)" fill="#717171"/>
      <path id="Vector-4" data-name="Vector" d="M4.036,12.876a9.186,9.186,0,0,1-3.61-.744.7.7,0,1,1,.54-1.284,7.808,7.808,0,0,0,3.061.633c3,0,5.88-1.8,7.889-4.959a4.228,4.228,0,0,0,0-4.075,13.252,13.252,0,0,0-.94-1.3.707.707,0,0,1,.1-.986.7.7,0,0,1,.986.1A14.786,14.786,0,0,1,13.1,1.693a5.636,5.636,0,0,1,0,5.582C10.828,10.829,7.525,12.876,4.036,12.876Z" transform="translate(-10136.785 -3694.233)" fill="#717171"/>
      <path id="Vector-5" data-name="Vector" d="M.7,4.011a.705.705,0,0,1-.688-.568.685.685,0,0,1,.558-.809A2.624,2.624,0,0,0,2.637.569.706.706,0,0,1,3.455.011a.7.7,0,0,1,.558.819A4,4,0,0,1,.832,4.011.61.61,0,0,0,.7,4.011Z" transform="translate(-10132.809 -3689.787)" fill="#717171"/>
      <path id="Vector-6" data-name="Vector" d="M.7,8.343a.69.69,0,0,1-.493-.2.7.7,0,0,1,0-.986L7.152.2a.7.7,0,0,1,.986.986l-6.95,6.95A.69.69,0,0,1,.7,8.343Z" transform="translate(-10142.747 -3688.09)" fill="#717171"/>
      <path id="Vector-7" data-name="Vector" d="M.7,8.343a.69.69,0,0,1-.493-.2.7.7,0,0,1,0-.986L7.152.2a.7.7,0,1,1,.986.986l-6.95,6.95A.69.69,0,0,1,.7,8.343Z" transform="translate(-10131.091 -3699.748)" fill="#717171"/>
    </g>
  </g>
</svg>
