<svg xmlns="http://www.w3.org/2000/svg" width="20" height="19.867" viewBox="0 0 20 19.867">
  <path id="Vector" d="M11.737,1.436,13.5,4.961a2.2,2.2,0,0,0,1.413,1.05l3.188.525c2.038.338,2.513,1.813,1.05,3.288l-2.488,2.488a2.158,2.158,0,0,0-.513,1.813l.713,3.075c.563,2.425-.738,3.375-2.875,2.1L11,17.524a2.122,2.122,0,0,0-1.975,0L6.037,19.3C3.9,20.562,2.6,19.625,3.162,17.2l.713-3.075A2.272,2.272,0,0,0,3.337,12.3L.849,9.811C-.613,8.349-.138,6.874,1.9,6.524L5.087,6A2.159,2.159,0,0,0,6.5,4.949L8.262,1.424C9.225-.477,10.775-.477,11.737,1.436Z" fill="#e2e2e2"/>
</svg>
