<svg xmlns="http://www.w3.org/2000/svg" width="24" height="24" viewBox="0 0 24 24">
  <g id="Group_3448" data-name="Group 3448" transform="translate(6380 4247)">
    <path id="Vector" d="M0,0H24V24H0Z" transform="translate(-6356 -4223) rotate(180)" fill="none"/>
    <path id="Vector-2" data-name="Vector" d="M14.2,0H5.813C2.171,0,0,2.17,0,5.81v8.37C0,17.83,2.171,20,5.813,20h8.374C17.829,20,20,17.83,20,14.19V5.81C20.01,2.17,17.839,0,14.2,0Zm.59,7.7L9.115,13.37a.749.749,0,0,1-1.061,0L5.223,10.54A.75.75,0,1,1,6.283,9.48l2.3,2.3,5.143-5.14A.75.75,0,0,1,14.787,7.7Z" transform="translate(-6378 -4245)" fill="#00b051"/>
  </g>
</svg>
