<svg xmlns="http://www.w3.org/2000/svg" width="24" height="24" viewBox="0 0 24 24">
  <g id="Group_3386" data-name="Group 3386" transform="translate(7091 3617)">
    <path id="Vector" d="M0,0H24V24H0Z" transform="translate(-7091 -3617)" fill="none"/>
    <g id="Group_3292" data-name="Group 3292" transform="translate(139.75 38.75)">
      <path id="Vector-2" data-name="Vector" d="M12.791,20H7.209C2.158,20,0,17.842,0,12.791V7.209C0,2.158,2.158,0,7.209,0h5.581C17.842,0,20,2.158,20,7.209v5.581C20,17.842,17.842,20,12.791,20ZM7.209,1.4C2.921,1.4,1.4,2.921,1.4,7.209v5.581c0,4.288,1.526,5.814,5.814,5.814h5.581c4.288,0,5.814-1.526,5.814-5.814V7.209c0-4.288-1.526-5.814-5.814-5.814Z" transform="translate(-7228.75 -3653.75)" fill="#fff"/>
      <path id="Vector-3" data-name="Vector" d="M3.328,6.667a.7.7,0,0,1-.493-.2L.2,3.83a.7.7,0,0,1,.986-.986l2.14,2.14L8.109.2a.7.7,0,0,1,.986.986L3.821,6.463A.7.7,0,0,1,3.328,6.667Z" transform="translate(-7223.399 -3647.087)" fill="#fff"/>
    </g>
  </g>
</svg>
