<svg xmlns="http://www.w3.org/2000/svg" width="32" height="32" viewBox="0 0 32 32">
  <g id="Group_3444" data-name="Group 3444" transform="translate(6531.75 3986.75)">
    <path id="Vector" d="M20.465,32h-8.93C3.453,32,0,28.547,0,20.465v-8.93C0,3.453,3.453,0,11.535,0h8.93C28.547,0,32,3.453,32,11.535v8.93C32,28.547,28.547,32,20.465,32ZM11.535,2.233c-6.861,0-9.3,2.441-9.3,9.3v8.93c0,6.861,2.441,9.3,9.3,9.3h8.93c6.861,0,9.3-2.441,9.3-9.3v-8.93c0-6.861-2.441-9.3-9.3-9.3Z" transform="translate(-6531.75 -3986.75)" fill="#c6c6c6"/>
    <path id="Vector-2" data-name="Vector" d="M6.53,3.345a1.1,1.1,0,0,1-.789-.327,2.722,2.722,0,0,0-3.84,0A1.116,1.116,0,0,1,.324,1.44a4.968,4.968,0,0,1,7,0,1.123,1.123,0,0,1,0,1.578A1.1,1.1,0,0,1,6.53,3.345Z" transform="translate(-6524.305 -3977.816)" fill="#c6c6c6"/>
    <path id="Vector-3" data-name="Vector" d="M1.113,3.345a1.1,1.1,0,0,1-.789-.327,1.123,1.123,0,0,1,0-1.578,4.968,4.968,0,0,1,7,0A1.116,1.116,0,1,1,5.741,3.018a2.722,2.722,0,0,0-3.84,0A1.056,1.056,0,0,1,1.113,3.345Z" transform="translate(-6514.838 -3977.816)" fill="#c6c6c6"/>
    <path id="Vector-4" data-name="Vector" d="M13.172,10.27H2.456A2.458,2.458,0,0,1,0,7.814a7.814,7.814,0,0,1,15.628,0A2.458,2.458,0,0,1,13.172,10.27ZM7.814,2.233A5.583,5.583,0,0,0,2.233,7.814a.229.229,0,0,0,.223.223H13.172a.229.229,0,0,0,.223-.223A5.583,5.583,0,0,0,7.814,2.233Z" transform="translate(-6523.564 -3971.42)" fill="#c6c6c6"/>
  </g>
</svg>
