<svg xmlns="http://www.w3.org/2000/svg" width="24" height="24" viewBox="0 0 24 24">
    <g data-name="Group 3387">
        <path d="M0 0h24v24H0z" transform="rotate(180 12 12)" style="fill:none"/>
        <path data-name="Vector" d="M14.19 0H5.81C2.17 0 0 2.17 0 5.81v8.38C0 17.83 2.17 20 5.81 20h8.38c3.64 0 5.81-2.17 5.81-5.81V5.81C20 2.17 17.83 0 14.19 0zM7.97 12.9l-2.25 2.25a.742.742 0 0 1-.53.22.725.725 0 0 1-.53-.22l-.75-.75a.737.737 0 0 1 0-1.06.754.754 0 0 1 1.06 0l.22.22 1.72-1.72a.75.75 0 1 1 1.06 1.06zm0-7L5.72 8.15a.742.742 0 0 1-.53.22.725.725 0 0 1-.53-.22l-.75-.75a.737.737 0 0 1 0-1.06.754.754 0 0 1 1.06 0l.22.22 1.72-1.72A.75.75 0 1 1 7.97 5.9zm7.59 8.72h-5.25a.75.75 0 0 1 0-1.5h5.25a.75.75 0 0 1 0 1.5zm0-7h-5.25a.75.75 0 0 1 0-1.5h5.25a.75.75 0 0 1 0 1.5z" transform="translate(2 2)" style="fill:#ff9600"/>
    </g>
</svg>
