<svg xmlns="http://www.w3.org/2000/svg" width="214" height="24" viewBox="0 0 214 24">
  <g id="Group_3018" data-name="Group 3018" transform="translate(5847 3465.7)">
    <rect id="Rectangle_12" data-name="Rectangle 12" width="2" height="10" rx="1" transform="translate(-5767 -3458.7)" fill="#009dff"/>
    <rect id="Rectangle_1739" data-name="Rectangle 1739" width="2" height="10" rx="1" transform="translate(-5691 -3458.7)" fill="#009dff"/>
    <rect id="Rectangle_12-2" data-name="Rectangle 12" width="2" height="7" rx="1" transform="translate(-5763 -3457.2)" fill="#009dff"/>
    <rect id="Rectangle_1738" data-name="Rectangle 1738" width="2" height="7" rx="1" transform="translate(-5687 -3457.2)" fill="#009dff"/>
    <rect id="Rectangle_12-3" data-name="Rectangle 12" width="2" height="10" rx="1" transform="translate(-5759 -3458.7)" fill="#009dff"/>
    <rect id="Rectangle_1737" data-name="Rectangle 1737" width="2" height="10" rx="1" transform="translate(-5683 -3458.7)" fill="#009dff"/>
    <rect id="Rectangle_12-4" data-name="Rectangle 12" width="2" height="3" rx="1" transform="translate(-5755 -3455.2)" fill="#009dff"/>
    <rect id="Rectangle_1735" data-name="Rectangle 1735" width="2" height="3" rx="1" transform="translate(-5679 -3455.2)" fill="#009dff"/>
    <rect id="Rectangle_12-5" data-name="Rectangle 12" width="2" height="5" rx="1" transform="translate(-5751 -3456.2)" fill="#009dff"/>
    <rect id="Rectangle_1736" data-name="Rectangle 1736" width="2" height="5" rx="1" transform="translate(-5675 -3456.2)" fill="#009dff"/>
    <rect id="Rectangle_12-6" data-name="Rectangle 12" width="2" height="9" rx="1" transform="translate(-5747 -3458.2)" fill="#009dff"/>
    <rect id="Rectangle_1730" data-name="Rectangle 1730" width="2" height="9" rx="1" transform="translate(-5671 -3458.2)" fill="#009dff"/>
    <rect id="Rectangle_12-7" data-name="Rectangle 12" width="2" height="5" rx="1" transform="translate(-5743 -3456.2)" fill="#009dff"/>
    <rect id="Rectangle_1731" data-name="Rectangle 1731" width="2" height="5" rx="1" transform="translate(-5667 -3456.2)" fill="#009dff"/>
    <rect id="Rectangle_12-8" data-name="Rectangle 12" width="2" height="3" rx="1" transform="translate(-5739 -3455.2)" fill="#009dff"/>
    <rect id="Rectangle_1732" data-name="Rectangle 1732" width="2" height="3" rx="1" transform="translate(-5663 -3455.2)" fill="#009dff"/>
    <rect id="Rectangle_12-9" data-name="Rectangle 12" width="2" height="3" rx="1" transform="translate(-5735 -3455.2)" fill="#009dff"/>
    <rect id="Rectangle_1733" data-name="Rectangle 1733" width="2" height="3" rx="1" transform="translate(-5659 -3455.2)" fill="#009dff"/>
    <rect id="Rectangle_12-10" data-name="Rectangle 12" width="2" height="9" rx="1" transform="translate(-5731 -3458.2)" fill="#009dff"/>
    <rect id="Rectangle_1734" data-name="Rectangle 1734" width="2" height="9" rx="1" transform="translate(-5655 -3458.2)" fill="#009dff"/>
    <rect id="Rectangle_12-11" data-name="Rectangle 12" width="2" height="5" rx="1" transform="translate(-5727 -3456.2)" fill="#009dff"/>
    <rect id="Rectangle_1729" data-name="Rectangle 1729" width="2" height="5" rx="1" transform="translate(-5651 -3456.2)" fill="#009dff"/>
    <rect id="Rectangle_12-12" data-name="Rectangle 12" width="2" height="10" rx="1" transform="translate(-5723 -3458.7)" fill="#009dff"/>
    <rect id="Rectangle_1721" data-name="Rectangle 1721" width="2" height="10" rx="1" transform="translate(-5647 -3458.7)" fill="#009dff"/>
    <rect id="Rectangle_12-13" data-name="Rectangle 12" width="2" height="9" rx="1" transform="translate(-5719 -3458.2)" fill="#009dff"/>
    <rect id="Rectangle_1722" data-name="Rectangle 1722" width="2" height="9" rx="1" transform="translate(-5643 -3458.2)" fill="#009dff"/>
    <rect id="Rectangle_12-14" data-name="Rectangle 12" width="2" height="7" rx="1" transform="translate(-5715 -3457.2)" fill="#009dff"/>
    <rect id="Rectangle_1723" data-name="Rectangle 1723" width="2" height="7" rx="1" transform="translate(-5639 -3457.2)" fill="#009dff"/>
    <rect id="Rectangle_12-15" data-name="Rectangle 12" width="2" height="10" rx="1" transform="translate(-5711 -3458.7)" fill="#009dff"/>
    <rect id="Rectangle_1724" data-name="Rectangle 1724" width="2" height="10" rx="1" transform="translate(-5635 -3458.7)" fill="#009dff"/>
    <rect id="Rectangle_12-16" data-name="Rectangle 12" width="2" height="5" rx="1" transform="translate(-5707 -3456.2)" fill="#009dff"/>
    <rect id="Rectangle_12-17" data-name="Rectangle 12" width="2" height="9" rx="1" transform="translate(-5703 -3458.2)" fill="#009dff"/>
    <rect id="Rectangle_12-18" data-name="Rectangle 12" width="2" height="16" rx="1" transform="translate(-5699 -3461.7)" fill="#009dff"/>
    <rect id="Rectangle_12-19" data-name="Rectangle 12" width="2" height="3" rx="1" transform="translate(-5695 -3455.2)" fill="#009dff"/>
    <rect id="Rectangle_12-20" data-name="Rectangle 12" width="2" height="24" rx="1" transform="translate(-5771 -3465.7)" fill="#009dff"/>
    <rect id="Rectangle_1740" data-name="Rectangle 1740" width="2" height="24" rx="1" transform="translate(-5695 -3465.7)" fill="#009dff"/>
    <rect id="Rectangle_12-21" data-name="Rectangle 12" width="2" height="10" rx="1" transform="translate(-5773 -3448.7) rotate(180)" fill="#009dff"/>
    <rect id="Rectangle_12-22" data-name="Rectangle 12" width="2" height="7" rx="1" transform="translate(-5777 -3450.2) rotate(180)" fill="#009dff"/>
    <rect id="Rectangle_12-23" data-name="Rectangle 12" width="2" height="10" rx="1" transform="translate(-5781 -3448.7) rotate(180)" fill="#009dff"/>
    <rect id="Rectangle_12-24" data-name="Rectangle 12" width="2" height="3" rx="1" transform="translate(-5785 -3452.2) rotate(180)" fill="#009dff"/>
    <rect id="Rectangle_12-25" data-name="Rectangle 12" width="2" height="5" rx="1" transform="translate(-5789 -3451.2) rotate(180)" fill="#009dff"/>
    <rect id="Rectangle_12-26" data-name="Rectangle 12" width="2" height="9" rx="1" transform="translate(-5793 -3449.2) rotate(180)" fill="#009dff"/>
    <rect id="Rectangle_12-27" data-name="Rectangle 12" width="2" height="5" rx="1" transform="translate(-5797 -3451.2) rotate(180)" fill="#009dff"/>
    <rect id="Rectangle_12-28" data-name="Rectangle 12" width="2" height="3" rx="1" transform="translate(-5801 -3452.2) rotate(180)" fill="#009dff"/>
    <rect id="Rectangle_12-29" data-name="Rectangle 12" width="2" height="3" rx="1" transform="translate(-5805 -3452.2) rotate(180)" fill="#009dff"/>
    <rect id="Rectangle_12-30" data-name="Rectangle 12" width="2" height="9" rx="1" transform="translate(-5809 -3449.2) rotate(180)" fill="#009dff"/>
    <rect id="Rectangle_12-31" data-name="Rectangle 12" width="2" height="5" rx="1" transform="translate(-5813 -3451.2) rotate(180)" fill="#009dff"/>
    <rect id="Rectangle_12-32" data-name="Rectangle 12" width="2" height="10" rx="1" transform="translate(-5817 -3448.7) rotate(180)" fill="#009dff"/>
    <rect id="Rectangle_12-33" data-name="Rectangle 12" width="2" height="9" rx="1" transform="translate(-5821 -3449.2) rotate(180)" fill="#009dff"/>
    <rect id="Rectangle_12-34" data-name="Rectangle 12" width="2" height="7" rx="1" transform="translate(-5825 -3450.2) rotate(180)" fill="#009dff"/>
    <rect id="Rectangle_12-35" data-name="Rectangle 12" width="2" height="10" rx="1" transform="translate(-5829 -3448.7) rotate(180)" fill="#009dff"/>
    <rect id="Rectangle_12-36" data-name="Rectangle 12" width="2" height="5" rx="1" transform="translate(-5833 -3451.2) rotate(180)" fill="#009dff"/>
    <rect id="Rectangle_12-37" data-name="Rectangle 12" width="2" height="9" rx="1" transform="translate(-5837 -3449.2) rotate(180)" fill="#009dff"/>
    <rect id="Rectangle_12-38" data-name="Rectangle 12" width="2" height="16" rx="1" transform="translate(-5841 -3445.7) rotate(180)" fill="#009dff"/>
    <rect id="Rectangle_12-39" data-name="Rectangle 12" width="2" height="3" rx="1" transform="translate(-5845 -3452.2) rotate(180)" fill="#009dff"/>
  </g>
</svg>
