<svg xmlns="http://www.w3.org/2000/svg" width="24" height="24" viewBox="0 0 24 24">
  <g id="Group_3781" data-name="Group 3781" transform="translate(-5047 4548)">
    <rect id="Rectangle_929" data-name="Rectangle 929" width="24" height="24" transform="translate(5047 -4548)" fill="none"/>
    <g id="Group_3780" data-name="Group 3780" transform="translate(40 15)">
      <path id="Vector" d="M.7,6.047a.7.7,0,0,1-.7-.7V.7A.7.7,0,0,1,.7,0a.7.7,0,0,1,.7.7V5.349A.7.7,0,0,1,.7,6.047Z" transform="translate(5018.302 -4555.418)" fill="#fff"/>
      <path id="Vector-2" data-name="Vector" d="M.93,1.856a.926.926,0,0,1-.353-.074,1.074,1.074,0,0,1-.307-.2.96.96,0,0,1-.2-.307A.926.926,0,0,1,0,.926.926.926,0,0,1,.074.572,1.074,1.074,0,0,1,.27.265,1.074,1.074,0,0,1,.577.07a.93.93,0,0,1,.707,0,1.074,1.074,0,0,1,.307.2,1.074,1.074,0,0,1,.2.307A.926.926,0,0,1,1.86.926a.926.926,0,0,1-.074.353.96.96,0,0,1-.2.307,1.074,1.074,0,0,1-.307.2A.926.926,0,0,1,.93,1.856Z" transform="translate(5018.07 -4548.205)" fill="#fff"/>
      <path id="Vector-3" data-name="Vector" d="M12.791,20H7.209C2.158,20,0,17.842,0,12.791V7.209C0,2.158,2.158,0,7.209,0h5.581C17.842,0,20,2.158,20,7.209v5.581C20,17.842,17.842,20,12.791,20ZM7.209,1.4C2.921,1.4,1.4,2.921,1.4,7.209v5.581c0,4.288,1.526,5.814,5.814,5.814h5.581c4.288,0,5.814-1.526,5.814-5.814V7.209c0-4.288-1.526-5.814-5.814-5.814Z" transform="translate(5009 -4561)" fill="#fff"/>
    </g>
  </g>
</svg>
